<svg width="1015" height="219" viewBox="0 0 1015 219" fill="none" xmlns="http://www.w3.org/2000/svg">
<path d="M1002.71 133.84H948.953C942.513 133.84 941.953 134.4 941.953 138.88C941.953 159.88 955.393 180.32 981.433 180.32C989.273 180.32 999.913 178.64 1007.47 165.76C1010.55 165.2 1014.75 167.44 1014.75 172.2C1003.27 196 982.553 204.12 965.753 204.12C927.953 204.12 907.513 177.52 907.513 147C907.513 111.72 932.993 84.2803 967.993 84.2803C997.113 84.2803 1012.79 103.04 1012.79 124.6C1012.79 129.92 1011.39 133.84 1002.71 133.84ZM957.073 121.52H967.433C971.353 121.52 975.833 120.96 978.913 119C980.313 118.16 980.873 115.36 980.873 112.56C980.873 103.32 975.553 97.1603 966.033 97.1603C954.273 97.1603 944.193 108.36 944.193 117.32C944.193 121.24 948.113 121.52 957.073 121.52Z" fill="white"/>
<path d="M880.349 84.2803C889.869 84.2803 902.189 86.2403 909.749 89.0403C913.389 92.1203 915.629 96.0403 915.629 103.6C915.629 112 911.709 119.56 908.349 119.56C906.949 119.56 904.429 119 903.869 118.16C896.029 106.96 885.109 97.1603 875.029 97.1603C856.829 97.1603 847.029 117.88 847.029 137.2C847.029 159.32 861.309 181.72 887.069 181.72C897.429 181.72 905.829 178.36 911.989 168C915.349 167.72 919.269 169.68 919.269 174.16C913.109 188.16 896.309 204.12 869.709 204.12C834.429 204.12 810.349 180.6 810.349 147.56C810.349 107.8 842.549 84.2803 880.349 84.2803Z" fill="white"/>
<path d="M600.992 103.32H590.632C588.952 102.2 588.392 97.16 589.792 95.76L601.832 89.6C605.472 87.64 607.992 85.96 607.992 82.32C607.992 77 609.672 56.56 615.832 43.12C624.512 24.36 641.591 6.72 673.511 6.72C685.271 6.72 699.832 9.24 707.392 16.52C713.552 10.36 728.952 0 753.872 0C782.152 0 800.352 12.88 800.352 28.84C800.352 40.32 790.832 47.04 780.472 47.04C775.152 47.04 770.112 44.8 767.872 41.16C765.632 37.52 762.832 30.8 760.312 26.6C754.712 17.08 749.672 14 742.952 14C733.712 14 722.792 23.8 722.792 65.52V81.2C722.792 88.48 723.352 88.2 730.072 88.2H751.632C771.792 88.2 790.552 87.64 797.832 85.96C800.072 85.96 802.312 87.36 802.592 90.16C801.752 99.12 801.192 110.88 801.192 122.36V167.72C801.192 187.88 802.312 190.12 811.552 191.24L816.032 191.8C818.272 193.48 818.272 199.36 815.752 201.04C807.072 200.48 795.312 200.2 782.992 200.2C770.952 200.2 761.152 200.48 752.192 201.04C749.672 199.36 749.672 193.48 751.912 191.8L756.392 191.24C763.672 190.4 764.792 187.88 764.792 167.72V127.68C764.792 105.84 763.952 103.32 750.232 103.32H730.072C723.352 103.32 722.792 103.6 722.792 111.16V167.72C722.792 187.88 723.912 189.84 733.152 191.24L736.792 191.8C739.032 193.48 739.032 199.36 736.512 201.04C728.392 200.48 717.192 200.2 704.032 200.2C692.552 200.2 682.752 200.48 673.792 201.04C671.272 199.36 671.271 193.48 673.511 191.8L677.992 191.24C685.272 190.4 686.392 187.88 686.392 167.72V111.16C686.392 103.6 685.832 103.32 679.392 103.32H651.672C645.792 103.32 644.392 103.6 644.392 111.16V167.72C644.392 187.88 645.512 189.84 654.752 191.24L658.392 191.8C660.632 193.48 660.632 199.36 658.112 201.04C649.992 200.48 638.792 200.2 625.632 200.2C614.152 200.2 602.392 200.48 593.432 201.04C590.912 199.36 590.912 193.48 593.152 191.8L597.632 191.24C606.872 190.12 607.992 187.88 607.992 167.72V111.16C607.992 103.6 607.432 103.32 600.992 103.32ZM651.672 88.2H680.232C685.552 88.2 686.392 87.08 686.392 82.32C686.392 72.24 687.792 55.44 691.992 40.88C690.032 32.48 683.592 19.6 671.272 19.6C659.792 19.6 644.392 29.4 644.392 77.84V80.36C644.392 87.92 644.672 88.2 651.672 88.2Z" fill="white"/>
<path d="M531.097 204.12C497.777 204.12 468.657 185.08 468.377 146.44C468.097 106.4 499.737 84.2803 532.777 84.2803C565.817 84.2803 595.497 104.44 595.497 143.92C595.497 184.8 565.537 204.12 531.097 204.12ZM531.097 97.1603C518.777 97.1603 508.697 109.76 508.697 140.28C508.697 169.68 517.937 191.24 534.177 191.24C550.137 191.24 555.457 173.04 555.177 147.84C554.897 120.68 547.057 97.1603 531.097 97.1603Z" fill="white"/>
<path d="M406.321 204.12C373.001 204.12 343.881 185.08 343.601 146.44C343.321 106.4 374.961 84.2803 408.001 84.2803C441.041 84.2803 470.721 104.44 470.721 143.92C470.721 184.8 440.761 204.12 406.321 204.12ZM406.321 97.1603C394.001 97.1603 383.921 109.76 383.921 140.28C383.921 169.68 393.161 191.24 409.401 191.24C425.361 191.24 430.681 173.04 430.401 147.84C430.121 120.68 422.281 97.1603 406.321 97.1603Z" fill="white"/>
<path d="M152.456 167.72V125.44C152.456 114.24 152.456 110.88 147.136 107.52L143.216 105C141.256 103.32 141.256 98.2804 143.216 96.6004C156.096 92.9604 175.976 85.4004 184.656 80.3604C186.896 80.3604 188.576 81.2004 189.696 82.8804C189.696 86.8004 188.856 93.5204 188.856 95.4804C188.856 97.1604 189.416 97.7204 190.256 97.7204C191.096 97.7204 193.896 96.3204 195.576 95.4804C201.736 91.8404 214.336 84.2803 227.776 84.2803C237.856 84.2803 246.536 87.6404 252.976 94.9204C256.336 98.8404 258.016 99.9604 259.696 99.9604C260.816 99.9604 263.336 98.0004 268.656 95.2004C274.816 91.8404 285.456 84.2803 300.576 84.2803C322.696 84.2803 334.456 100.24 334.456 119.56V167.72C334.456 187.32 335.576 189.56 344.816 190.68L349.296 191.24C351.536 192.92 351.536 199.36 349.016 201.04C340.336 200.48 329.696 200.2 316.256 200.2C305.056 200.2 293.296 200.48 285.736 201.04C283.216 199.36 283.216 192.92 285.456 191.24L289.936 190.68C296.936 189.84 298.056 187.32 298.056 171.92V124.32C298.056 113.68 292.176 104.72 279.296 104.72C271.456 104.72 265.576 108.36 263.616 111.72C262.496 113.4 261.656 116.2 261.656 120.12V171.92C261.656 187.32 262.776 189.84 269.216 190.68L273.696 191.24C275.936 192.92 275.936 199.36 273.416 201.04C264.736 200.48 255.776 200.2 243.176 200.2C231.976 200.2 220.776 200.48 213.496 201.04C210.976 199.36 210.976 192.92 213.216 191.24L217.696 190.68C224.136 189.84 225.256 187.32 225.256 171.92V124.32C225.256 113.68 219.656 104.72 206.216 104.72C198.936 104.72 193.336 108.36 191.096 111.44C189.416 113.4 188.856 116.76 188.856 121.8V171.92C188.856 187.32 189.976 189.84 196.976 190.68L201.456 191.24C203.696 192.92 203.696 199.36 201.176 201.04C192.496 200.48 183.536 200.2 170.096 200.2C157.496 200.2 146.576 200.48 138.176 201.04C135.376 199.36 135.376 192.92 137.616 191.24L142.096 190.68C151.336 189.56 152.456 187.32 152.456 167.72Z" fill="white"/>
<path d="M0 149C0 102.056 38.0558 64 85 64H100V134C100 180.944 61.9442 219 15 219H0V149Z" fill="#8E51FF"/>
</svg>
